<?xml version="1.0" encoding="utf-8"?>
<!-- Generator: Adobe Illustrator 15.0.0, SVG Export Plug-In . SVG Version: 6.00 Build 0)  -->
<!DOCTYPE svg PUBLIC "-//W3C//DTD SVG 1.1//EN" "http://www.w3.org/Graphics/SVG/1.1/DTD/svg11.dtd">
<svg version="1.1" id="Layer_1" xmlns="http://www.w3.org/2000/svg" xmlns:xlink="http://www.w3.org/1999/xlink" x="0px" y="0px"
	 width="497px" height="483px" viewBox="0 0 497 483" enable-background="new 0 0 497 483" xml:space="preserve">
<title>Keystone, state symbol of Pennsylvania</title>
<path d="M-1007.5-23.436l38.167,85.103h-90.335L-954.02,377.21h208.25l105.646-315.543h-90.334l38.168-85.103H-1007.5z"/>
<g>
	<g>
		<polygon fill="#0E0CC8" points="405.562,60.495 248.063,422 90.563,60.495 		"/>
		<polyline fill="#BF1B00" points="144.375,462.542 352.625,462.542 458.271,147 38.728,147 		"/>
	</g>
	<g>
		<polygon fill="#FFFFFF" points="334.463,244.221 248.261,464.394 162.059,244.221 		"/>
		<polygon fill="#FFFFFF" points="191.511,281.208 305.489,281.208 363.312,108.507 133.688,108.507 		"/>
	</g>
</g>
<g>
	<g>
		<polygon fill="#0E0CC8" points="928.562,66.494 771.063,428 613.563,66.494 		"/>
		<polyline fill="#BF1B00" points="667.375,468.542 875.625,468.542 981.271,153 561.729,153 		"/>
	</g>
	<g>
		<polygon fill="#FFFFFF" points="857.463,67.162 771.261,467.334 685.059,67.162 		"/>
		<polygon fill="#FFFFFF" points="714.511,287.208 828.489,287.208 886.312,114.507 656.688,114.507 		"/>
	</g>
</g>
</svg>
