<?xml version="1.0" encoding="utf-8"?>
<!-- Generator: Adobe Illustrator 15.0.0, SVG Export Plug-In . SVG Version: 6.00 Build 0)  -->
<!DOCTYPE svg PUBLIC "-//W3C//DTD SVG 1.1//EN" "http://www.w3.org/Graphics/SVG/1.1/DTD/svg11.dtd">
<svg version="1.1" id="Layer_1" xmlns="http://www.w3.org/2000/svg" xmlns:xlink="http://www.w3.org/1999/xlink" x="0px" y="0px"
	 width="497px" height="483px" viewBox="1551 0 497 483" enable-background="new 1551 0 497 483" xml:space="preserve">
<title>Keystone, state symbol of Pennsylvania</title>
<g>
	<g>
		<polygon fill="#0E0CC8" points="405.562,60.495 248.063,422 90.563,60.495 		"/>
		<polyline fill="#BF1B00" points="144.375,462.542 352.625,462.542 458.271,147 38.728,147 		"/>
	</g>
	<g>
		<polygon fill="#FFFFFF" points="334.463,244.221 248.261,464.394 162.059,244.221 		"/>
		<polygon fill="#FFFFFF" points="191.511,281.208 305.489,281.208 363.312,108.507 133.688,108.507 		"/>
	</g>
</g>
<g>
	<g>
		<polygon fill="#0E0CC8" points="1439.562,60.495 1282.063,422 1124.563,60.495 		"/>
		<polyline fill="#BF1B00" points="1178.375,462.542 1386.625,462.542 1492.271,147 1072.729,147 		"/>
	</g>
	<g>
		<polygon fill="#FFFFFF" points="1368.463,244.221 1282.261,464.394 1196.059,244.221 		"/>
		<polygon fill="#FFFFFF" points="1225.511,281.208 1339.489,281.208 1397.312,88.507 1167.688,88.507 		"/>
	</g>
</g>
<g>
	<g>
		<polygon fill="#0E0CC8" points="1956.562,60.495 1799.063,422 1641.563,60.495 		"/>
		<polyline fill="#BF1B00" points="1695.375,462.542 1903.625,462.542 2009.271,147 1589.729,147 		"/>
	</g>
	<g>
		<polygon fill="#FFFFFF" points="1916.641,147.195 1799.261,463.001 1681.881,147.195 		"/>
		<polygon fill="#FFFFFF" points="1742.511,247.224 1856.489,247.224 1914.312,85.522 1684.688,85.522 		"/>
	</g>
</g>
<g>
	<g>
		<polygon fill="#0E0CC8" points="928.562,66.494 771.063,428 613.563,66.494 		"/>
		<polyline fill="#BF1B00" points="667.375,468.542 875.625,468.542 981.271,153 561.729,153 		"/>
	</g>
	<g>
		<polygon fill="#FFFFFF" points="857.463,67.162 771.261,467.334 685.059,67.162 		"/>
		<polygon fill="#FFFFFF" points="714.511,287.208 828.489,287.208 886.312,114.507 656.688,114.507 		"/>
	</g>
</g>
</svg>
